<svg xmlns="http://www.w3.org/2000/svg" width="27" height="27" viewBox="0 0 27 27"><circle cx="13.5" cy="13.5" r="13.5" fill="#cacbe3"/><path d="M9.85,4.107A1.313,1.313,0,1,0,8.537,2.793,1.317,1.317,0,0,0,9.85,4.107ZM7.486,13.234l.657-2.889,1.379,1.313V15.6h1.313V10.673L9.456,9.36,9.85,7.39a4.808,4.808,0,0,0,3.611,1.642V7.718a3.23,3.23,0,0,1-2.824-1.576L9.982,5.091a1.354,1.354,0,0,0-1.116-.657c-.2,0-.328.066-.525.066L4.926,5.945V9.031H6.239V6.8l1.182-.46L6.37,11.658,3.153,11,2.89,12.314Z" transform="translate(4.349 5.086)" fill="#2e3192"/></svg>