<svg xmlns="http://www.w3.org/2000/svg" width="24.941" height="15.872" viewBox="0 0 24.941 15.872"><path d="M18.005,11.8a3.4,3.4,0,1,0-3.4-3.4A3.387,3.387,0,0,0,18.005,11.8Zm-9.069,0a3.4,3.4,0,1,0-3.4-3.4A3.387,3.387,0,0,0,8.936,11.8Zm0,2.267C6.294,14.069,1,15.4,1,18.037v2.834H16.872V18.037C16.872,15.4,11.577,14.069,8.936,14.069Zm9.069,0c-.329,0-.7.023-1.1.057a4.784,4.784,0,0,1,2.233,3.911v2.834h6.8V18.037C25.941,15.4,20.647,14.069,18.005,14.069Z" transform="translate(-1 -5)" fill="#2e3192"/></svg>