<svg xmlns="http://www.w3.org/2000/svg" width="42.5" height="42.5" viewBox="0 0 42.5 42.5"><path d="M9.419,152.474,7.94,158l-5.407.114a21.287,21.287,0,0,1-.156-19.843h0l4.814.883L9.3,143.935a12.682,12.682,0,0,0,.119,8.539Z" transform="translate(0 -126.791)" fill="#fbbb00"/><path d="M282.04,208.176a21.242,21.242,0,0,1-7.575,20.541h0l-6.063-.309-.858-5.357a12.665,12.665,0,0,0,5.449-6.467H261.628v-8.407H282.04Z" transform="translate(-239.911 -190.896)" fill="#518ef8"/><path d="M62.529,321.546h0a21.257,21.257,0,0,1-32.021-6.5l6.886-5.637a12.638,12.638,0,0,0,18.212,6.471Z" transform="translate(-27.977 -283.726)" fill="#28b446"/><path d="M61.062,4.892l-6.884,5.636a12.637,12.637,0,0,0-18.63,6.617l-6.923-5.667h0A21.254,21.254,0,0,1,61.062,4.892Z" transform="translate(-26.248)" fill="#f14336"/></svg>